<svg width="35" height="36" viewBox="0 0 35 36" fill="none" xmlns="http://www.w3.org/2000/svg">
<g clip-path="url(#clip0_145_457)">
<ellipse cx="7.0841" cy="7.2705" rx="7.0841" ry="7.2705" transform="matrix(0.763047 0.646343 -0.372859 0.927888 17.4218 4)" fill="#FFE274"/>
<path d="M16.47 7.41C17.2633 6.52333 18.255 5.78833 19.445 5.205C20.6583 4.59833 21.9767 4.295 23.4 4.295C24.8467 4.295 26.1183 4.61 27.215 5.24C28.335 5.84667 29.1983 6.73333 29.805 7.9C30.4117 9.06667 30.715 10.4317 30.715 11.995C30.715 12.7183 30.645 13.465 30.505 14.235C30.155 16.2183 29.455 17.98 28.405 19.52C27.355 21.0367 26.0833 22.215 24.59 23.055C23.0967 23.895 21.5333 24.315 19.9 24.315C18.4767 24.315 17.2633 24.0233 16.26 23.44C15.28 22.8567 14.5333 22.1217 14.02 21.235L11.92 33.24H6.985L12.025 4.61H16.96L16.47 7.41ZM25.5 14.235C25.57 13.7683 25.605 13.3483 25.605 12.975C25.605 11.5983 25.2083 10.525 24.415 9.755C23.6217 8.985 22.6067 8.6 21.37 8.6C20.4833 8.6 19.6083 8.83333 18.745 9.3C17.8817 9.74333 17.135 10.3967 16.505 11.26C15.875 12.1233 15.455 13.1383 15.245 14.305C15.1517 14.9117 15.105 15.355 15.105 15.635C15.105 17.0117 15.5017 18.085 16.295 18.855C17.1117 19.625 18.1267 20.01 19.34 20.01C20.25 20.01 21.1367 19.7767 22 19.31C22.8633 18.8433 23.61 18.1783 24.24 17.315C24.87 16.4517 25.29 15.425 25.5 14.235Z" fill="#252525"/>
</g>
<defs>
<clipPath id="clip0_145_457">
<rect width="35" height="36" fill="white"/>
</clipPath>
</defs>
</svg>
