<svg width="134" height="49" viewBox="0 0 134 49" fill="none" xmlns="http://www.w3.org/2000/svg">
<g clip-path="url(#clip0_164_463)">
<ellipse cx="103.944" cy="24.131" rx="5.63277" ry="6.62544" transform="rotate(30.2601 103.944 24.131)" fill="#507B64"/>
<path d="M15.015 35L9.625 25.48H7.315V35H2.415V10.57H11.585C13.475 10.57 15.085 10.9083 16.415 11.585C17.745 12.2383 18.7367 13.1367 19.39 14.28C20.0667 15.4 20.405 16.66 20.405 18.06C20.405 19.67 19.9383 21.1283 19.005 22.435C18.0717 23.7183 16.6833 24.605 14.84 25.095L20.685 35H15.015ZM7.315 21.805H11.41C12.74 21.805 13.7317 21.49 14.385 20.86C15.0383 20.2067 15.365 19.3083 15.365 18.165C15.365 17.045 15.0383 16.1817 14.385 15.575C13.7317 14.945 12.74 14.63 11.41 14.63H7.315V21.805ZM26.2719 13.3C25.4085 13.3 24.6852 13.0317 24.1019 12.495C23.5419 11.935 23.2619 11.2467 23.2619 10.43C23.2619 9.61333 23.5419 8.93666 24.1019 8.4C24.6852 7.84 25.4085 7.56 26.2719 7.56C27.1352 7.56 27.8469 7.84 28.4069 8.4C28.9902 8.93666 29.2819 9.61333 29.2819 10.43C29.2819 11.2467 28.9902 11.935 28.4069 12.495C27.8469 13.0317 27.1352 13.3 26.2719 13.3ZM28.6869 15.61V35H23.7869V15.61H28.6869ZM31.2181 25.305C31.2181 23.2983 31.6264 21.5483 32.4431 20.055C33.2598 18.5383 34.3914 17.3717 35.8381 16.555C37.2848 15.715 38.9414 15.295 40.8081 15.295C43.2114 15.295 45.1948 15.9017 46.7581 17.115C48.3448 18.305 49.4064 19.985 49.9431 22.155H44.6581C44.3781 21.315 43.8998 20.6617 43.2231 20.195C42.5698 19.705 41.7531 19.46 40.7731 19.46C39.3731 19.46 38.2648 19.9733 37.4481 21C36.6314 22.0033 36.2231 23.4383 36.2231 25.305C36.2231 27.1483 36.6314 28.5833 37.4481 29.61C38.2648 30.6133 39.3731 31.115 40.7731 31.115C42.7564 31.115 44.0514 30.2283 44.6581 28.455H49.9431C49.4064 30.555 48.3448 32.2233 46.7581 33.46C45.1714 34.6967 43.1881 35.315 40.8081 35.315C38.9414 35.315 37.2848 34.9067 35.8381 34.09C34.3914 33.25 33.2598 32.0833 32.4431 30.59C31.6264 29.0733 31.2181 27.3117 31.2181 25.305ZM70.5078 24.885C70.5078 25.585 70.4611 26.215 70.3678 26.775H56.1928C56.3094 28.175 56.7994 29.2717 57.6628 30.065C58.5261 30.8583 59.5878 31.255 60.8478 31.255C62.6678 31.255 63.9628 30.4733 64.7328 28.91H70.0178C69.4578 30.7767 68.3844 32.3167 66.7978 33.53C65.2111 34.72 63.2628 35.315 60.9528 35.315C59.0861 35.315 57.4061 34.9067 55.9128 34.09C54.4428 33.25 53.2878 32.0717 52.4478 30.555C51.6311 29.0383 51.2228 27.2883 51.2228 25.305C51.2228 23.2983 51.6311 21.5367 52.4478 20.02C53.2644 18.5033 54.4078 17.3367 55.8778 16.52C57.3478 15.7033 59.0394 15.295 60.9528 15.295C62.7961 15.295 64.4411 15.6917 65.8878 16.485C67.3578 17.2783 68.4894 18.41 69.2828 19.88C70.0994 21.3267 70.5078 22.995 70.5078 24.885ZM65.4328 23.485C65.4094 22.225 64.9544 21.2217 64.0678 20.475C63.1811 19.705 62.0961 19.32 60.8128 19.32C59.5994 19.32 58.5728 19.6933 57.7328 20.44C56.9161 21.1633 56.4144 22.1783 56.2278 23.485H65.4328ZM78.0043 29.015C77.981 29.155 77.9693 29.3417 77.9693 29.575C77.9693 30.0417 78.0977 30.38 78.3543 30.59C78.6343 30.7767 79.0893 30.87 79.7193 30.87H82.0293L81.2943 35H78.1793C74.6793 35 72.9293 33.5417 72.9293 30.625C72.9293 30.065 72.976 29.5167 73.0693 28.98L74.7143 19.635H72.4043L73.1043 15.61H75.4493L76.2893 10.815H81.2243L80.3843 15.61H84.6893L83.9893 19.635H79.6493L78.0043 29.015ZM90.0687 13.3C89.2987 13.3 88.6803 13.0783 88.2137 12.635C87.747 12.1917 87.5137 11.6317 87.5137 10.955C87.5137 10.0217 87.8637 9.22833 88.5637 8.575C89.287 7.89833 90.127 7.56 91.0837 7.56C91.8303 7.56 92.437 7.78167 92.9037 8.225C93.3703 8.66833 93.6037 9.22833 93.6037 9.905C93.6037 10.8383 93.2537 11.6433 92.5537 12.32C91.8537 12.9733 91.0253 13.3 90.0687 13.3ZM92.0987 15.61L88.6687 35H83.7337L87.1637 15.61H92.0987ZM100.3 18.41C101.093 17.5233 102.085 16.7883 103.275 16.205C104.488 15.5983 105.807 15.295 107.23 15.295C108.677 15.295 109.948 15.61 111.045 16.24C112.165 16.8467 113.028 17.7333 113.635 18.9C114.242 20.0667 114.545 21.4317 114.545 22.995C114.545 23.7183 114.475 24.465 114.335 25.235C113.985 27.2183 113.285 28.98 112.235 30.52C111.185 32.0367 109.913 33.215 108.42 34.055C106.927 34.895 105.363 35.315 103.73 35.315C102.307 35.315 101.093 35.0233 100.09 34.44C99.1099 33.8567 98.3632 33.1217 97.8499 32.235L95.7499 44.24H90.8149L95.8549 15.61H100.79L100.3 18.41ZM109.33 25.235C109.4 24.7683 109.435 24.3483 109.435 23.975C109.435 22.5983 109.038 21.525 108.245 20.755C107.452 19.985 106.437 19.6 105.2 19.6C104.313 19.6 103.438 19.8333 102.575 20.3C101.712 20.7433 100.965 21.3967 100.335 22.26C99.7049 23.1233 99.2849 24.1383 99.0749 25.305C98.9815 25.9117 98.9349 26.355 98.9349 26.635C98.9349 28.0117 99.3315 29.085 100.125 29.855C100.942 30.625 101.957 31.01 103.17 31.01C104.08 31.01 104.967 30.7767 105.83 30.31C106.693 29.8433 107.44 29.1783 108.07 28.315C108.7 27.4517 109.12 26.425 109.33 25.235ZM122.691 35.315C121.267 35.315 119.972 35.0817 118.806 34.615C117.662 34.125 116.752 33.46 116.076 32.62C115.422 31.7567 115.096 30.7767 115.096 29.68C115.096 29.5167 115.119 29.2483 115.166 28.875H119.926C119.856 29.6917 120.101 30.3567 120.661 30.87C121.221 31.36 122.014 31.605 123.041 31.605C123.974 31.605 124.744 31.4417 125.351 31.115C125.981 30.765 126.296 30.2633 126.296 29.61C126.296 29.0267 126.004 28.56 125.421 28.21C124.861 27.86 123.962 27.4633 122.726 27.02C121.489 26.5767 120.462 26.145 119.646 25.725C118.829 25.305 118.129 24.7217 117.546 23.975C116.962 23.2283 116.671 22.2833 116.671 21.14C116.671 19.9967 116.997 18.9817 117.651 18.095C118.327 17.2083 119.261 16.52 120.451 16.03C121.641 15.54 123.006 15.295 124.546 15.295C126.016 15.295 127.311 15.54 128.431 16.03C129.551 16.52 130.414 17.2083 131.021 18.095C131.651 18.9583 131.966 19.95 131.966 21.07C131.966 21.35 131.954 21.56 131.931 21.7H127.381C127.451 20.8833 127.217 20.23 126.681 19.74C126.144 19.25 125.362 19.005 124.336 19.005C123.496 19.005 122.807 19.1917 122.271 19.565C121.734 19.915 121.466 20.3933 121.466 21C121.466 21.6067 121.769 22.1083 122.376 22.505C122.982 22.8783 123.916 23.2983 125.176 23.765C126.436 24.255 127.439 24.71 128.186 25.13C128.956 25.5267 129.621 26.0867 130.181 26.81C130.741 27.51 131.021 28.3967 131.021 29.47C131.021 30.66 130.659 31.6983 129.936 32.585C129.212 33.4717 128.221 34.1483 126.961 34.615C125.701 35.0817 124.277 35.315 122.691 35.315Z" fill="white"/>
</g>
<defs>
<clipPath id="clip0_164_463">
<rect width="134" height="49" fill="white"/>
</clipPath>
</defs>
</svg>
