<svg width="293" height="105" viewBox="0 0 293 105" fill="none" xmlns="http://www.w3.org/2000/svg">
<ellipse cx="224.115" cy="57.9835" rx="10.975" ry="13.5" transform="rotate(30.2601 224.115 57.9835)" fill="#FFE274"/>
<path d="M45.03 77L34.25 57.96H29.63V77H19.83V28.14H38.17C41.95 28.14 45.17 28.8167 47.83 30.17C50.49 31.4767 52.4733 33.2733 53.78 35.56C55.1333 37.8 55.81 40.32 55.81 43.12C55.81 46.34 54.8767 49.2567 53.01 51.87C51.1433 54.4367 48.3667 56.21 44.68 57.19L56.37 77H45.03ZM29.63 50.61H37.82C40.48 50.61 42.4633 49.98 43.77 48.72C45.0767 47.4133 45.73 45.6167 45.73 43.33C45.73 41.09 45.0767 39.3633 43.77 38.15C42.4633 36.89 40.48 36.26 37.82 36.26H29.63V50.61ZM67.5438 33.6C65.8171 33.6 64.3704 33.0633 63.2038 31.99C62.0838 30.87 61.5238 29.4933 61.5238 27.86C61.5238 26.2267 62.0838 24.8733 63.2038 23.8C64.3704 22.68 65.8171 22.12 67.5438 22.12C69.2704 22.12 70.6938 22.68 71.8138 23.8C72.9804 24.8733 73.5638 26.2267 73.5638 27.86C73.5638 29.4933 72.9804 30.87 71.8138 31.99C70.6938 33.0633 69.2704 33.6 67.5438 33.6ZM72.3738 38.22V77H62.5738V38.22H72.3738ZM77.4362 57.61C77.4362 53.5967 78.2528 50.0967 79.8862 47.11C81.5195 44.0767 83.7828 41.7433 86.6762 40.11C89.5695 38.43 92.8828 37.59 96.6162 37.59C101.423 37.59 105.39 38.8033 108.516 41.23C111.69 43.61 113.813 46.97 114.886 51.31H104.316C103.756 49.63 102.8 48.3233 101.446 47.39C100.14 46.41 98.5062 45.92 96.5462 45.92C93.7462 45.92 91.5295 46.9467 89.8962 49C88.2628 51.0067 87.4462 53.8767 87.4462 57.61C87.4462 61.2967 88.2628 64.1667 89.8962 66.22C91.5295 68.2267 93.7462 69.23 96.5462 69.23C100.513 69.23 103.103 67.4567 104.316 63.91H114.886C113.813 68.11 111.69 71.4467 108.516 73.92C105.343 76.3933 101.376 77.63 96.6162 77.63C92.8828 77.63 89.5695 76.8133 86.6762 75.18C83.7828 73.5 81.5195 71.1667 79.8862 68.18C78.2528 65.1467 77.4362 61.6233 77.4362 57.61ZM156.016 56.77C156.016 58.17 155.922 59.43 155.736 60.55H127.386C127.619 63.35 128.599 65.5433 130.326 67.13C132.052 68.7167 134.176 69.51 136.696 69.51C140.336 69.51 142.926 67.9467 144.466 64.82H155.036C153.916 68.5533 151.769 71.6333 148.596 74.06C145.422 76.44 141.526 77.63 136.906 77.63C133.172 77.63 129.812 76.8133 126.826 75.18C123.886 73.5 121.576 71.1433 119.896 68.11C118.262 65.0767 117.446 61.5767 117.446 57.61C117.446 53.5967 118.262 50.0733 119.896 47.04C121.529 44.0067 123.816 41.6733 126.756 40.04C129.696 38.4067 133.079 37.59 136.906 37.59C140.592 37.59 143.882 38.3833 146.776 39.97C149.716 41.5567 151.979 43.82 153.566 46.76C155.199 49.6533 156.016 52.99 156.016 56.77ZM145.866 53.97C145.819 51.45 144.909 49.4433 143.136 47.95C141.362 46.41 139.192 45.64 136.626 45.64C134.199 45.64 132.146 46.3867 130.466 47.88C128.832 49.3267 127.829 51.3567 127.456 53.97H145.866ZM171.009 65.03C170.962 65.31 170.939 65.6833 170.939 66.15C170.939 67.0833 171.195 67.76 171.709 68.18C172.269 68.5533 173.179 68.74 174.439 68.74H179.059L177.589 77H171.359C164.359 77 160.859 74.0833 160.859 68.25C160.859 67.13 160.952 66.0333 161.139 64.96L164.429 46.27H159.809L161.209 38.22H165.899L167.579 28.63H177.449L175.769 38.22H184.379L182.979 46.27H174.299L171.009 65.03ZM195.137 33.6C193.597 33.6 192.361 33.1567 191.427 32.27C190.494 31.3833 190.027 30.2633 190.027 28.91C190.027 27.0433 190.727 25.4567 192.127 24.15C193.574 22.7967 195.254 22.12 197.167 22.12C198.661 22.12 199.874 22.5633 200.807 23.45C201.741 24.3367 202.207 25.4567 202.207 26.81C202.207 28.6767 201.507 30.2867 200.107 31.64C198.707 32.9467 197.051 33.6 195.137 33.6ZM199.197 38.22L192.337 77H182.467L189.327 38.22H199.197ZM215.6 43.82C217.186 42.0467 219.17 40.5767 221.55 39.41C223.976 38.1967 226.613 37.59 229.46 37.59C232.353 37.59 234.896 38.22 237.09 39.48C239.33 40.6933 241.056 42.4667 242.27 44.8C243.483 47.1333 244.09 49.8633 244.09 52.99C244.09 54.4367 243.95 55.93 243.67 57.47C242.97 61.4367 241.57 64.96 239.47 68.04C237.37 71.0733 234.826 73.43 231.84 75.11C228.853 76.79 225.726 77.63 222.46 77.63C219.613 77.63 217.186 77.0467 215.18 75.88C213.22 74.7133 211.726 73.2433 210.7 71.47L206.5 95.48H196.63L206.71 38.22H216.58L215.6 43.82ZM233.66 57.47C233.8 56.5367 233.87 55.6967 233.87 54.95C233.87 52.1967 233.076 50.05 231.49 48.51C229.903 46.97 227.873 46.2 225.4 46.2C223.626 46.2 221.876 46.6667 220.15 47.6C218.423 48.4867 216.93 49.7933 215.67 51.52C214.41 53.2467 213.57 55.2767 213.15 57.61C212.963 58.8233 212.87 59.71 212.87 60.27C212.87 63.0233 213.663 65.17 215.25 66.71C216.883 68.25 218.913 69.02 221.34 69.02C223.16 69.02 224.933 68.5533 226.66 67.62C228.386 66.6867 229.88 65.3567 231.14 63.63C232.4 61.9033 233.24 59.85 233.66 57.47ZM260.381 77.63C257.535 77.63 254.945 77.1633 252.611 76.23C250.325 75.25 248.505 73.92 247.151 72.24C245.845 70.5133 245.191 68.5533 245.191 66.36C245.191 66.0333 245.238 65.4967 245.331 64.75H254.851C254.711 66.3833 255.201 67.7133 256.321 68.74C257.441 69.72 259.028 70.21 261.081 70.21C262.948 70.21 264.488 69.8833 265.701 69.23C266.961 68.53 267.591 67.5267 267.591 66.22C267.591 65.0533 267.008 64.12 265.841 63.42C264.721 62.72 262.925 61.9267 260.451 61.04C257.978 60.1533 255.925 59.29 254.291 58.45C252.658 57.61 251.258 56.4433 250.091 54.95C248.925 53.4567 248.341 51.5667 248.341 49.28C248.341 46.9933 248.995 44.9633 250.301 43.19C251.655 41.4167 253.521 40.04 255.901 39.06C258.281 38.08 261.011 37.59 264.091 37.59C267.031 37.59 269.621 38.08 271.861 39.06C274.101 40.04 275.828 41.4167 277.041 43.19C278.301 44.9167 278.931 46.9 278.931 49.14C278.931 49.7 278.908 50.12 278.861 50.4H269.761C269.901 48.7667 269.435 47.46 268.361 46.48C267.288 45.5 265.725 45.01 263.671 45.01C261.991 45.01 260.615 45.3833 259.541 46.13C258.468 46.83 257.931 47.7867 257.931 49C257.931 50.2133 258.538 51.2167 259.751 52.01C260.965 52.7567 262.831 53.5967 265.351 54.53C267.871 55.51 269.878 56.42 271.371 57.26C272.911 58.0533 274.241 59.1733 275.361 60.62C276.481 62.02 277.041 63.7933 277.041 65.94C277.041 68.32 276.318 70.3967 274.871 72.17C273.425 73.9433 271.441 75.2967 268.921 76.23C266.401 77.1633 263.555 77.63 260.381 77.63Z" fill="#252525"/>
</svg>
